<?xml version="1.0" standalone="no"?>
<!DOCTYPE svg PUBLIC "-//W3C//DTD SVG 20010904//EN"
 "http://www.w3.org/TR/2001/REC-SVG-20010904/DTD/svg10.dtd">
<svg version="1.0" xmlns="http://www.w3.org/2000/svg"
 width="400.000000pt" height="400.000000pt" viewBox="0 0 400.000000 400.000000"
 preserveAspectRatio="xMidYMid meet">
<metadata>
Created by potrace 1.11, written by Peter Selinger 2001-2013
</metadata>
<g transform="translate(0.000000,400.000000) scale(0.100000,-0.100000)"
fill="#000000" stroke="none">
<path d="M1726 3953 c-1 -2 -29 -5 -61 -8 -32 -4 -64 -9 -69 -13 -6 -3 -15 -7
-21 -8 -37 -8 -183 -56 -209 -70 -17 -9 -40 -18 -51 -19 -11 -2 -32 -5 -46 -8
-41 -8 -208 -94 -276 -143 -34 -24 -66 -44 -72 -44 -6 0 -15 -8 -20 -18 -5 -9
-45 -39 -88 -66 -136 -86 -283 -220 -374 -342 -24 -32 -47 -61 -50 -64 -4 -3
-21 -30 -40 -60 -18 -30 -38 -58 -43 -62 -6 -4 -7 -8 -2 -8 5 0 2 -8 -7 -17
-13 -15 -100 -179 -102 -193 -1 -3 -8 -21 -17 -40 -8 -19 -21 -53 -28 -75 -7
-22 -17 -46 -23 -52 -5 -7 -7 -13 -3 -13 3 0 -1 -17 -9 -37 -8 -21 -17 -49
-19 -63 -3 -14 -12 -54 -21 -89 -8 -35 -18 -80 -20 -99 -2 -19 -7 -53 -11 -76
-3 -22 -8 -54 -10 -71 -5 -43 -6 -346 -1 -370 3 -11 8 -47 11 -80 9 -80 52
-270 77 -342 11 -32 22 -65 24 -73 10 -48 104 -242 159 -329 14 -22 26 -44 26
-48 1 -9 59 -90 144 -198 49 -63 215 -228 281 -280 28 -22 51 -43 53 -47 2 -5
9 -8 15 -8 7 0 24 -11 39 -25 15 -14 29 -25 32 -25 3 0 36 -19 73 -43 139 -89
387 -198 503 -221 14 -3 40 -9 58 -15 17 -5 32 -8 32 -6 0 3 11 0 24 -5 13 -5
46 -12 73 -15 26 -4 59 -9 73 -11 174 -29 499 -21 640 16 19 5 49 12 65 14 66
12 78 16 93 28 8 7 16 11 16 9 4 -18 232 65 351 128 105 55 245 141 274 169 8
7 25 21 40 30 94 61 312 288 391 407 19 28 37 52 40 55 4 3 15 21 25 40 10 19
21 37 25 40 25 18 169 336 196 435 49 179 63 253 79 410 9 88 3 362 -9 423 -3
15 -8 50 -12 77 -3 28 -8 53 -10 56 -2 4 -6 23 -10 43 -4 30 -21 89 -58 211
-3 10 -5 14 -38 105 -51 134 -186 366 -286 490 -93 115 -223 242 -332 324 -30
22 -57 43 -60 46 -10 11 -117 78 -185 117 -132 74 -230 116 -303 128 -18 3
-66 16 -108 30 -141 46 -164 52 -249 61 -55 6 -573 12 -579 7z"/>
</g>
</svg>
